<svg width="114" height="49" viewBox="0 0 114 49" fill="none" xmlns="http://www.w3.org/2000/svg">
<g clip-path="url(#clip0_9_1020)">
<path d="M13.4324 33.629C10.9076 33.629 8.61731 33.1893 6.56144 32.3097C4.54165 31.4302 2.93663 30.1462 1.74639 28.4576C0.592222 26.769 0.0151367 24.7462 0.0151367 22.3891C0.0151367 20.032 0.574187 17.9917 1.69229 16.2679C2.84645 14.5441 4.43345 13.2073 6.45324 12.2574C8.5091 11.3076 10.8355 10.8327 13.4324 10.8327C14.1898 10.8327 14.9111 10.8854 15.5964 10.991C16.3178 11.0965 17.0031 11.2372 17.6523 11.4131L30.258 11.4659V16.3734C28.5267 16.4086 26.7775 16.1799 25.0101 15.6874C23.2789 15.1597 21.746 14.6145 20.4115 14.0516L20.2492 13.735C21.4755 14.333 22.5755 15.0718 23.5494 15.9513C24.5593 16.7956 25.3527 17.763 25.9298 18.8536C26.507 19.9442 26.7955 21.1754 26.7955 22.5474C26.7955 24.8693 26.2183 26.857 25.0642 28.5104C23.9461 30.1637 22.3771 31.4302 20.3574 32.3097C18.3736 33.1893 16.0653 33.629 13.4324 33.629ZM22.0886 48.4044V47.1907C22.0886 45.4668 21.5656 44.2531 20.5197 43.5496C19.4738 42.8461 18.013 42.4942 16.1374 42.4942H8.83371C7.39099 42.4942 6.14666 42.3711 5.1007 42.1248C4.09079 41.9137 3.27927 41.5796 2.66612 41.1222C2.05297 40.7 1.60212 40.1899 1.31358 39.5919C1.02504 39.029 0.880764 38.3957 0.880764 37.6922C0.880764 36.285 1.31358 35.2296 2.1792 34.526C3.08091 33.8225 4.2531 33.3651 5.69581 33.154C7.17459 32.943 8.72551 32.9077 10.3486 33.0485L13.4324 33.629C11.3044 33.6993 9.68131 33.8928 8.5632 34.2094C7.48117 34.4908 6.94015 35.0713 6.94015 35.9508C6.94015 36.4785 7.15656 36.9007 7.58937 37.2173C8.02219 37.5339 8.63533 37.6922 9.42883 37.6922H17.1113C19.3114 37.6922 21.241 37.9385 22.9002 38.431C24.5593 38.9587 25.8396 39.8205 26.7414 41.0167C27.6791 42.2479 28.148 43.919 28.148 46.0297V48.4044H22.0886ZM13.4324 29.038C14.8751 29.038 16.1555 28.7742 17.2736 28.2465C18.3917 27.7188 19.2753 26.9625 19.9246 25.9774C20.5738 24.9923 20.8984 23.7964 20.8984 22.3891C20.8984 20.9819 20.5738 19.7682 19.9246 18.748C19.2753 17.7278 18.3917 16.9539 17.2736 16.4262C16.1555 15.8985 14.8751 15.6347 13.4324 15.6347C12.0257 15.6347 10.7453 15.8985 9.59114 16.4262C8.47303 16.9539 7.58937 17.7278 6.94015 18.748C6.29093 19.7331 5.96632 20.9468 5.96632 22.3891C5.96632 23.7964 6.29093 24.9923 6.94015 25.9774C7.58937 26.9625 8.47303 27.7188 9.59114 28.2465C10.7092 28.7742 11.9896 29.038 13.4324 29.038ZM46.7704 38.2727C44.3179 38.2727 42.0636 37.6922 40.0077 36.5313C37.988 35.3703 36.3649 33.7697 35.1385 31.7293C33.9483 29.6537 33.3532 27.2791 33.3532 24.6054C33.3532 21.8614 33.9663 19.4693 35.1926 17.4288C36.419 15.3532 38.078 13.735 40.17 12.574C42.262 11.4131 44.6063 10.8327 47.2032 10.8327C50.0886 10.8327 52.379 11.4483 54.0741 12.6796C55.7693 13.9109 56.9776 15.5643 57.6989 17.6399C58.4202 19.7154 58.781 22.0373 58.781 24.6054C58.781 26.0477 58.5646 27.578 58.1318 29.1964C57.6989 30.7794 57.0136 32.257 56.0759 33.629C55.1741 35.001 53.948 36.1266 52.397 37.0062C50.8821 37.8505 49.0065 38.2727 46.7704 38.2727ZM48.6099 33.4179C50.6296 33.4179 52.3429 33.0485 53.7495 32.3097C55.1923 31.5357 56.2743 30.4803 56.9956 29.1436C57.753 27.8068 58.1318 26.294 58.1318 24.6054C58.1318 22.741 57.753 21.1579 56.9956 19.8562C56.2382 18.5194 55.1562 17.4992 53.7495 16.7956C52.3429 16.0568 50.6296 15.6874 48.6099 15.6874C45.7245 15.6874 43.4882 16.5142 41.9012 18.1676C40.3143 19.821 39.5208 21.967 39.5208 24.6054C39.5208 26.3293 39.8995 27.8596 40.6569 29.1964C41.4505 30.5331 42.5325 31.571 43.903 32.3097C45.2735 33.0485 46.8425 33.4179 48.6099 33.4179ZM58.1318 11.4131H64.1911V37.6922H58.5646C58.5646 37.6922 58.5284 37.3581 58.4564 36.6896C58.3843 36.0211 58.312 35.212 58.24 34.2622C58.1679 33.2771 58.1318 32.345 58.1318 31.4654V11.4131ZM77.8255 0.278809V5.92512H70.63V0.278809H77.8255ZM71.171 11.4131H77.2304V37.6922H71.171V11.4131ZM96.434 38.2727C93.9815 38.2727 91.7272 37.6922 89.6713 36.5313C87.6516 35.3703 86.0285 33.7697 84.8021 31.7293C83.6119 29.6537 83.0168 27.2791 83.0168 24.6054C83.0168 21.8614 83.6301 19.4693 84.8563 17.4288C86.0826 15.3532 87.7418 13.735 89.8336 12.574C91.9256 11.4131 94.2699 10.8327 96.8668 10.8327C99.7524 10.8327 102.043 11.4483 103.738 12.6796C105.433 13.9109 106.641 15.5643 107.363 17.6399C108.084 19.7154 108.445 22.0373 108.445 24.6054C108.445 26.0477 108.228 27.578 107.795 29.1964C107.363 30.7794 106.677 32.257 105.74 33.629C104.838 35.001 103.612 36.1266 102.061 37.0062C100.546 37.8505 98.6703 38.2727 96.434 38.2727ZM98.2735 33.4179C100.293 33.4179 102.006 33.0485 103.413 32.3097C104.856 31.5357 105.938 30.4803 106.659 29.1436C107.417 27.8068 107.795 26.294 107.795 24.6054C107.795 22.741 107.417 21.1579 106.659 19.8562C105.902 18.5194 104.82 17.4992 103.413 16.7956C102.006 16.0568 100.293 15.6874 98.2735 15.6874C95.3881 15.6874 93.152 16.5142 91.5649 18.1676C89.9779 19.821 89.1844 21.967 89.1844 24.6054C89.1844 26.3293 89.5631 27.8596 90.3205 29.1964C91.1141 30.5331 92.1961 31.571 93.5666 32.3097C94.9373 33.0485 96.5063 33.4179 98.2735 33.4179ZM107.795 11.4131H113.855V37.6922H108.228C108.228 37.6922 108.192 37.3581 108.12 36.6896C108.048 36.0211 107.976 35.212 107.904 34.2622C107.832 33.2771 107.795 32.345 107.795 31.4654V11.4131Z" fill="black"/>
</g>
<defs>
<clipPath id="clip0_9_1020">
<rect width="114" height="49" fill="white"/>
</clipPath>
</defs>
</svg>