<svg width="114" height="49" viewBox="0 0 114 49" fill="none" xmlns="http://www.w3.org/2000/svg">
<path d="M13.4172 33.3502C10.8925 33.3502 8.60217 32.9105 6.5463 32.0309C4.52651 31.1514 2.92149 29.8674 1.73125 28.1788C0.577085 26.4902 0 24.4674 0 22.1103C0 19.7532 0.55905 17.7129 1.67715 15.9891C2.83132 14.2653 4.41831 12.9285 6.4381 11.9786C8.49397 11.0288 10.8203 10.5538 13.4172 10.5538C14.1746 10.5538 14.896 10.6066 15.5813 10.7122C16.3026 10.8177 16.9879 10.9584 17.6372 11.1343L30.2428 11.1871V16.0946C28.5116 16.1298 26.7624 15.9011 24.995 15.4086C23.2637 14.8809 21.7309 14.3356 20.3963 13.7728L20.234 13.4562C21.4604 14.0542 22.5604 14.793 23.5342 15.6725C24.5442 16.5168 25.3376 17.4842 25.9147 18.5748C26.4919 19.6654 26.7803 20.8966 26.7803 22.2686C26.7803 24.5905 26.2032 26.5782 25.0491 28.2315C23.9309 29.8849 22.362 31.1514 20.3422 32.0309C18.3585 32.9105 16.0502 33.3502 13.4172 33.3502ZM22.0735 48.1255V46.9119C22.0735 45.188 21.5504 43.9743 20.5045 43.2708C19.4586 42.5672 17.9978 42.2154 16.1223 42.2154H8.81858C7.37586 42.2154 6.13152 42.0923 5.08556 41.846C4.07565 41.6349 3.26413 41.3008 2.65098 40.8434C2.03784 40.4212 1.58698 39.9111 1.29844 39.3131C1.0099 38.7501 0.865627 38.1169 0.865627 37.4134C0.865627 36.0061 1.29844 34.9508 2.16407 34.2472C3.06577 33.5437 4.23796 33.0863 5.68068 32.8752C7.15945 32.6642 8.71037 32.6289 10.3334 32.7697L13.4172 33.3502C11.2892 33.4205 9.66618 33.614 8.54807 33.9306C7.46603 34.212 6.92502 34.7925 6.92502 35.672C6.92502 36.1997 7.14142 36.6218 7.57424 36.9385C8.00705 37.2551 8.6202 37.4134 9.41369 37.4134H17.0961C19.2963 37.4134 21.2258 37.6597 22.885 38.1522C24.5442 38.6798 25.8245 39.5417 26.7262 40.7378C27.6639 41.9691 28.1329 43.6402 28.1329 45.7509V48.1255H22.0735ZM13.4172 28.7592C14.8599 28.7592 16.1403 28.4954 17.2584 27.9677C18.3765 27.44 19.2602 26.6837 19.9094 25.6986C20.5586 24.7135 20.8833 23.5176 20.8833 22.1103C20.8833 20.7031 20.5586 19.4894 19.9094 18.4692C19.2602 17.449 18.3765 16.6751 17.2584 16.1474C16.1403 15.6197 14.8599 15.3558 13.4172 15.3558C12.0106 15.3558 10.7302 15.6197 9.576 16.1474C8.45789 16.6751 7.57424 17.449 6.92502 18.4692C6.2758 19.4543 5.95119 20.668 5.95119 22.1103C5.95119 23.5176 6.2758 24.7135 6.92502 25.6986C7.57424 26.6837 8.45789 27.44 9.576 27.9677C10.6941 28.4954 11.9745 28.7592 13.4172 28.7592ZM46.7553 37.9939C44.3027 37.9939 42.0484 37.4134 39.9926 36.2525C37.9728 35.0915 36.3498 33.4909 35.1234 31.4505C33.9332 29.3749 33.338 27.0003 33.338 24.3266C33.338 21.5826 33.9511 19.1905 35.1775 17.15C36.4039 15.0744 38.0629 13.4562 40.1549 12.2952C42.2469 11.1343 44.5912 10.5538 47.1881 10.5538C50.0734 10.5538 52.3639 11.1695 54.059 12.4008C55.7541 13.632 56.9625 15.2855 57.6838 17.3611C58.4051 19.4366 58.7658 21.7585 58.7658 24.3266C58.7658 25.7689 58.5494 27.2992 58.1166 28.9175C57.6838 30.5006 56.9985 31.9782 56.0608 33.3502C55.159 34.7222 53.9328 35.8478 52.3818 36.7274C50.867 37.5717 48.9914 37.9939 46.7553 37.9939ZM48.5947 33.1391C50.6145 33.1391 52.3277 32.7697 53.7344 32.0309C55.1772 31.2569 56.2592 30.2015 56.9805 28.8648C57.7379 27.528 58.1166 26.0152 58.1166 24.3266C58.1166 22.4622 57.7379 20.8791 56.9805 19.5774C56.2231 18.2406 55.141 17.2204 53.7344 16.5168C52.3277 15.778 50.6145 15.4086 48.5947 15.4086C45.7094 15.4086 43.473 16.2353 41.8861 17.8888C40.2992 19.5421 39.5056 21.6882 39.5056 24.3266C39.5056 26.0505 39.8843 27.5808 40.6418 28.9175C41.4353 30.2543 42.5174 31.2922 43.8879 32.0309C45.2584 32.7697 46.8273 33.1391 48.5947 33.1391ZM58.1166 11.1343H64.176V37.4134H58.5494C58.5494 37.4134 58.5133 37.0792 58.4412 36.4108C58.3692 35.7423 58.2969 34.9332 58.2248 33.9834C58.1527 32.9983 58.1166 32.0662 58.1166 31.1866V11.1343ZM77.8104 0V5.64631H70.6149V0H77.8104ZM71.1559 11.1343H77.2153V37.4134H71.1559V11.1343ZM96.4189 37.9939C93.9663 37.9939 91.712 37.4134 89.6562 36.2525C87.6364 35.0915 86.0134 33.4909 84.787 31.4505C83.5968 29.3749 83.0017 27.0003 83.0017 24.3266C83.0017 21.5826 83.6149 19.1905 84.8411 17.15C86.0675 15.0744 87.7267 13.4562 89.8185 12.2952C91.9105 11.1343 94.2548 10.5538 96.8517 10.5538C99.7372 10.5538 102.027 11.1695 103.723 12.4008C105.418 13.632 106.626 15.2855 107.347 17.3611C108.069 19.4366 108.429 21.7585 108.429 24.3266C108.429 25.7689 108.213 27.2992 107.78 28.9175C107.347 30.5006 106.662 31.9782 105.724 33.3502C104.823 34.7222 103.596 35.8478 102.045 36.7274C100.531 37.5717 98.6552 37.9939 96.4189 37.9939ZM98.2583 33.1391C100.278 33.1391 101.991 32.7697 103.398 32.0309C104.841 31.2569 105.923 30.2015 106.644 28.8648C107.402 27.528 107.78 26.0152 107.78 24.3266C107.78 22.4622 107.402 20.8791 106.644 19.5774C105.887 18.2406 104.805 17.2204 103.398 16.5168C101.991 15.778 100.278 15.4086 98.2583 15.4086C95.373 15.4086 93.1368 16.2353 91.5497 17.8888C89.9628 19.5421 89.1693 21.6882 89.1693 24.3266C89.1693 26.0505 89.548 27.5808 90.3054 28.9175C91.0989 30.2543 92.181 31.2922 93.5515 32.0309C94.9222 32.7697 96.4911 33.1391 98.2583 33.1391ZM107.78 11.1343H113.84V37.4134H108.213C108.213 37.4134 108.177 37.0792 108.105 36.4108C108.033 35.7423 107.961 34.9332 107.888 33.9834C107.816 32.9983 107.78 32.0662 107.78 31.1866V11.1343Z" fill="white"/>
</svg>